 <svg class="icon" viewBox="0 0 1024 1024" version="1.1" xmlns="http://www.w3.org/2000/svg" p-id="1635" height="128" width="128"><path d="M820.596364 727.505455H104.261818a23.272727 23.272727 0 0 1-23.272727-23.272728V210.850909a23.272727 23.272727 0 0 1 23.272727-23.272727h716.334546a23.272727 23.272727 0 0 1 23.272727 23.272727v493.381818a23.272727 23.272727 0 0 1-23.272727 23.272728z m-693.061819-46.545455h669.789091V232.727273H127.534545z" fill="#1B37A8" p-id="1636"></path><path d="M189.905455 319.767273h523.170909v46.545454H189.905455zM189.905455 434.269091h523.170909v46.545454H189.905455zM189.905455 549.236364h230.865454v46.545454H189.905455z" fill="#1B37A8" p-id="1637"></path><path d="M713.076364 606.487273m-206.661819 0a206.661818 206.661818 0 1 0 413.323637 0 206.661818 206.661818 0 1 0-413.323637 0Z" fill="#FFFFFF" p-id="1638"></path><path d="M713.076364 837.818182a229.934545 229.934545 0 1 1 229.934545-232.727273 230.4 230.4 0 0 1-229.934545 232.727273z m0-413.323637A183.389091 183.389091 0 1 0 896.465455 605.090909a183.854545 183.854545 0 0 0-183.389091-182.458182z" fill="#FFB718" p-id="1639"></path><path d="M617.192727 578.56l56.32 84.712727 135.447273-113.570909" fill="#FFFFFF" p-id="1640"></path><path d="M673.512727 686.545455h-3.258182a23.272727 23.272727 0 0 1-15.825454-10.24l-56.32-84.247273 38.632727-25.6 41.890909 62.836363 115.898182-96.814545 29.789091 35.84-135.447273 113.570909a23.272727 23.272727 0 0 1-15.36 4.654546z" fill="#FFB718" p-id="1641"></path></svg>